<?xml version="1.0" encoding="utf-8"?>
<!-- Generator: Adobe Illustrator 22.1.0, SVG Export Plug-In . SVG Version: 6.00 Build 0)  -->
<svg version="1.1" id="Layer_1" xmlns="http://www.w3.org/2000/svg" xmlns:xlink="http://www.w3.org/1999/xlink" x="0px" y="0px"
	 viewBox="0 0 239.8 71.4" style="enable-background:new 0 0 239.8 71.4;" xml:space="preserve">
<g>
	<path d="M13.2,0v28.9h26.4V0h13.2v70H39.6V40.9H13.2V70H0V0H13.2z"/>
	<path d="M86.1,19c14.4,0,24.1,10.1,24.1,25v4.7H74.1c0.5,6.8,5.2,11.9,12.4,11.9c7,0,10.7-3.9,12.4-7.4l10.3,6
		c-3.4,5.2-9.2,12.2-22.5,12.2c-14.8,0-25.5-11.2-25.5-26.6C61.2,29.8,71.5,19,86.1,19z M97.4,40.3c-0.7-6.5-4.9-10.5-11.4-10.5
		c-7.1,0-11,4.2-11.8,10.5H97.4z"/>
	<path d="M130.6,70H118V0h12.6V70z"/>
	<path d="M154.4,70h-12.6V0h12.6V70z"/>
	<path d="M188.6,19c14.6,0,26,10.6,26,26.2c0,15.6-11.4,26.2-26,26.2c-14.6,0-26-10.6-26-26.2C162.6,29.6,174,19,188.6,19z
		 M188.6,60.2c8,0,13.4-6,13.4-15c0-9-5.4-15-13.4-15s-13.4,6-13.4,15C175.2,54.2,180.6,60.2,188.6,60.2z"/>
	<path d="M230.3,52.4c5.4,0,9.5,3.9,9.5,9.5c0,5.6-4.1,9.5-9.5,9.5c-5.4,0-9.5-3.9-9.5-9.5C220.8,56.3,224.9,52.4,230.3,52.4z"/>
</g>
</svg>
