<svg xmlns="http://www.w3.org/2000/svg" xmlns:xlink="http://www.w3.org/1999/xlink" xml:space="preserve" version="1.1" style="shape-rendering:geometricPrecision;text-rendering:geometricPrecision;image-rendering:optimizeQuality;" viewBox="0 0 355 330" x="0px" y="0px" fill-rule="evenodd" clip-rule="evenodd"><defs><style type="text/css">
   
    .fil0 {fill:black}
   
  </style></defs><g><path class="fil0" d="M342 0l-329 0c-7,0 -13,6 -13,13l0 238c0,7 6,13 13,13l329 0c7,0 13,-6 13,-13l0 -238c0,-7 -6,-13 -13,-13zm-35 26l-134 113 -126 -113 260 0zm22 212l-303 0 0 -196 138 124c5,4 13,4 18,0l147 -125 0 197z"/></g><text x="0" y="279" fill="#000000" font-size="5px" font-weight="bold" font-family="'Helvetica Neue', Helvetica, Arial-Unicode, Arial, Sans-serif">Created by Saifurrijal</text><text x="0" y="284" fill="#000000" font-size="5px" font-weight="bold" font-family="'Helvetica Neue', Helvetica, Arial-Unicode, Arial, Sans-serif">from the Noun Project</text></svg>